<?xml version="1.0" standalone="no"?>
<!DOCTYPE svg PUBLIC "-//W3C//DTD SVG 20010904//EN"
 "http://www.w3.org/TR/2001/REC-SVG-20010904/DTD/svg10.dtd">
<svg version="1.0" xmlns="http://www.w3.org/2000/svg"
 width="956.000000pt" height="370.000000pt" viewBox="0 0 956.000000 370.000000"
 preserveAspectRatio="xMidYMid meet">

<g transform="translate(0.000000,370.000000) scale(0.100000,-0.100000)"
fill="#000000" stroke="none">
<path d="M6033 3591 c-234 -98 -423 -248 -526 -419 -42 -70 -48 -87 -48 -135
0 -93 28 -128 146 -182 156 -70 268 -162 306 -249 17 -40 20 -63 16 -116 -5
-67 -32 -140 -52 -140 -6 0 -22 26 -35 58 -60 146 -148 252 -257 310 -55 29
-69 32 -146 32 -77 0 -89 -3 -114 -25 l-28 -24 65 -1 c72 0 157 -33 218 -85
77 -65 151 -193 187 -323 25 -87 23 -90 -164 -229 -31 -23 -67 -51 -81 -63
l-25 -22 25 7 c32 9 188 92 219 116 55 44 67 15 57 -145 -12 -201 -79 -375
-187 -490 -70 -75 -122 -107 -201 -126 -32 -7 -58 -17 -58 -22 0 -4 41 -8 90
-8 111 0 162 21 237 97 70 71 95 106 136 188 66 133 81 207 84 420 1 105 2
192 3 195 0 3 23 33 51 65 125 148 146 283 65 421 -45 78 -117 141 -231 204
-147 81 -172 106 -161 165 13 68 157 224 295 317 97 66 237 131 267 124 39
-10 39 -52 -2 -167 -86 -244 -98 -307 -69 -375 55 -133 270 -264 432 -264 51
0 154 17 191 31 23 9 39 35 29 46 -4 3 -53 10 -109 15 -209 20 -359 97 -414
213 -41 86 -28 217 36 360 70 157 76 200 29 239 -27 23 -39 26 -107 26 -66 -1
-90 -6 -169 -39z"/>
<path d="M6507 3569 c-24 -14 -57 -92 -57 -132 1 -46 40 -120 72 -135 82 -39
148 103 102 218 -23 57 -70 76 -117 49z"/>
<path d="M3062 3369 c-167 -83 -280 -410 -228 -662 30 -142 96 -270 240 -462
113 -151 134 -216 88 -267 -23 -27 -48 -22 -95 21 -26 24 -48 37 -55 32 -11
-7 -87 -124 -105 -161 -4 -8 -16 -28 -27 -45 -45 -70 -52 -87 -42 -109 20 -45
113 -143 163 -173 153 -90 308 -56 416 91 74 101 103 198 103 349 0 213 -58
359 -225 567 -142 177 -187 308 -125 370 16 16 24 18 49 9 16 -6 35 -17 42
-25 23 -28 45 -15 83 49 21 34 60 98 87 142 27 44 49 86 49 93 0 8 -26 41 -57
74 -110 116 -256 159 -361 107z"/>
<path d="M2505 3363 c-177 -21 -315 -127 -430 -329 -81 -142 -152 -380 -185
-624 -15 -110 -20 -118 -73 -122 l-42 -3 -3 -217 -2 -217 32 -9 33 -8 3 -130
c2 -107 5 -131 19 -142 18 -13 227 -17 271 -6 21 6 22 10 22 129 0 68 3 130 6
139 9 24 229 24 238 0 3 -9 6 -339 6 -734 0 -642 2 -719 16 -731 11 -9 20 -10
32 -2 15 9 17 60 22 536 5 488 6 528 23 544 13 14 39 19 110 23 l92 5 3 943 2
942 -26 10 c-24 10 -106 11 -169 3z m-105 -822 c0 -124 -4 -232 -8 -239 -6 -9
-34 -12 -103 -10 l-94 3 2 60 c5 131 79 327 156 412 15 17 23 20 34 12 10 -9
13 -61 13 -238z"/>
<path d="M4375 3363 c-181 -28 -338 -159 -444 -370 -66 -132 -132 -374 -163
-598 -6 -44 -15 -86 -21 -92 -5 -7 -24 -13 -43 -13 -61 0 -64 -10 -64 -225 0
-206 4 -225 50 -225 30 0 34 -16 32 -138 -1 -63 3 -123 9 -133 9 -17 23 -19
139 -19 70 0 135 3 144 6 13 5 16 27 16 133 0 85 4 131 12 139 8 8 50 12 124
12 93 0 113 -3 118 -16 3 -9 6 -69 6 -135 0 -70 4 -119 10 -119 5 0 27 24 48
53 22 29 82 92 133 141 l94 88 2 742 c2 429 -1 747 -6 755 -10 15 -136 24
-196 14z m-87 -822 l-3 -246 -97 -3 c-121 -3 -124 0 -103 116 26 149 73 264
141 349 62 75 65 64 62 -216z"/>
<path d="M660 2455 l0 -905 163 0 c89 0 167 4 174 8 9 5 13 52 15 152 2 103 6
145 15 145 6 0 34 -34 61 -75 95 -146 258 -268 362 -273 l52 -2 18 50 c38 106
92 285 97 323 l5 39 -48 19 c-56 20 -118 60 -153 98 l-25 26 56 58 c87 89 115
141 161 302 31 108 30 380 -1 488 -52 179 -168 329 -311 402 -87 44 -137 50
-396 50 l-245 0 0 -905z m485 342 c68 -44 98 -101 99 -186 2 -137 -63 -221
-170 -221 -48 0 -54 3 -59 23 -4 13 -5 108 -3 211 3 201 4 206 58 206 14 0 48
-15 75 -33z"/>
<path d="M7154 3102 c-6 -4 -19 -21 -28 -39 -49 -97 23 -229 99 -179 35 23 48
61 42 123 -7 69 -30 103 -71 103 -17 0 -36 -4 -42 -8z"/>
<path d="M6634 3040 c-18 -6 -34 -16 -37 -24 -5 -11 12 -15 81 -18 111 -5 164
-30 252 -118 94 -94 172 -247 206 -405 63 -294 11 -621 -133 -829 -51 -73 -62
-84 -125 -132 -70 -51 -158 -79 -265 -83 -28 -2 -11 -20 32 -37 35 -13 64 -16
125 -11 67 4 90 11 145 42 85 47 122 81 185 165 93 125 148 277 180 501 12 81
10 180 -6 307 -8 62 -1 65 75 26 83 -41 148 -56 225 -52 64 3 71 1 74 -17 9
-44 22 -45 61 -5 l38 40 191 0 c157 0 192 3 192 14 0 21 -32 26 -223 33 l-179
6 -21 29 c-28 38 -57 38 -57 -2 0 -35 -11 -37 -83 -15 -169 51 -326 180 -444
364 -54 84 -134 158 -209 193 -56 26 -80 31 -158 34 -50 2 -105 -1 -122 -6z"/>
<path d="M5120 2531 c-26 -27 -60 -76 -77 -108 -54 -100 -119 -320 -137 -458
-6 -44 -27 -65 -65 -65 -32 0 -154 -49 -212 -85 -77 -48 -236 -195 -262 -241
-15 -27 3 -30 41 -6 154 93 298 144 462 162 58 6 112 14 121 16 14 4 16 27 16
172 0 224 33 371 128 558 29 57 48 104 42 104 -6 0 -32 -22 -57 -49z"/>
<path d="M7051 2367 c-1 -10 -6 -61 -12 -115 -16 -152 -49 -258 -112 -362 -68
-111 -103 -148 -182 -185 -83 -40 -143 -45 -232 -19 -105 31 -232 180 -288
339 -29 83 -35 89 -35 35 0 -95 71 -282 142 -375 90 -118 227 -181 338 -156
94 21 125 37 191 99 54 50 77 82 113 155 68 138 100 272 100 427 0 71 -5 136
-11 150 -9 19 -12 21 -12 7z"/>
<path d="M7342 2138 c-7 -7 -12 -43 -12 -89 0 -76 1 -79 49 -151 94 -142 107
-164 153 -263 47 -101 68 -159 108 -295 12 -41 26 -79 31 -84 9 -10 24 58 15
72 -3 5 -10 43 -16 83 -34 237 -127 492 -236 644 -57 80 -77 98 -92 83z"/>
<path d="M5130 1958 c-15 -25 -20 -51 -20 -105 0 -62 3 -75 26 -102 46 -55
114 -34 135 41 14 54 3 140 -22 172 -16 20 -30 26 -60 26 -34 0 -42 -5 -59
-32z"/>
<path d="M5570 1658 c-96 -59 -196 -82 -330 -74 -313 19 -322 18 -430 -2 -58
-11 -131 -30 -162 -42 -68 -25 -202 -110 -220 -140 -7 -11 -18 -20 -25 -20 -7
0 -13 -4 -13 -10 0 -13 17 -13 26 1 5 9 94 53 149 74 48 17 155 35 215 35 36
0 133 -8 215 -17 248 -27 348 -20 447 34 64 34 154 115 175 157 9 17 21 34 27
38 6 4 7 8 1 7 -5 0 -39 -18 -75 -41z"/>
<path d="M4528 1563 c7 -3 16 -2 19 1 4 3 -2 6 -13 5 -11 0 -14 -3 -6 -6z"/>
<path d="M4865 1396 c-88 -28 -211 -140 -255 -233 -49 -104 -62 -156 -67 -273
-6 -134 7 -205 61 -315 67 -136 140 -206 255 -244 76 -25 128 -26 195 -6 161
49 278 196 321 403 19 93 19 159 0 260 -19 99 -44 158 -102 240 -63 89 -144
146 -225 160 -112 19 -142 21 -183 8z m165 -292 c101 -41 159 -216 114 -346
-35 -103 -140 -174 -220 -148 -43 14 -95 59 -124 105 -45 73 -43 220 4 293 66
103 135 132 226 96z"/>
<path d="M2525 1368 c-3 -7 -4 -238 -3 -513 l3 -500 188 -3 187 -2 75 31 c61
25 85 42 129 91 61 69 109 159 132 250 24 91 15 259 -18 350 -46 123 -132 229
-215 264 -21 9 -51 22 -66 30 -39 19 -405 20 -412 2z m329 -299 c44 -11 84
-41 113 -86 13 -20 17 -49 18 -117 0 -77 -3 -96 -22 -127 -42 -67 -179 -116
-212 -75 -9 10 -11 69 -9 206 4 227 3 227 112 199z"/>
<path d="M3317 1374 c-4 -4 -7 -233 -7 -510 0 -448 2 -503 16 -508 20 -8 388
-8 408 0 24 9 24 279 0 288 -9 3 -56 6 -105 6 l-90 0 3 33 3 32 80 3 c136 4
125 -9 125 147 l0 135 -26 10 c-14 6 -61 10 -105 10 l-80 0 3 28 c3 27 4 27
83 30 137 4 126 -10 123 155 l-3 142 -211 3 c-115 1 -213 -1 -217 -4z"/>
<path d="M3847 1373 c-4 -3 -7 -232 -7 -509 0 -448 2 -503 16 -508 20 -8 168
-8 188 0 12 4 16 20 16 54 0 88 7 95 104 113 47 9 100 24 117 33 43 22 121
101 143 144 84 164 70 397 -32 528 -18 23 -18 23 -56 6 -52 -25 -70 -12 -74
55 -3 48 -5 52 -42 71 -34 18 -59 20 -203 20 -90 0 -167 -3 -170 -7z m349
-301 c81 -68 68 -224 -21 -267 -48 -22 -100 -14 -109 18 -10 37 -7 227 4 248
14 26 96 26 126 1z"/>
<path d="M5685 1340 c-58 -50 -73 -58 -165 -90 l-75 -25 -2 -422 c-2 -366 0
-425 13 -438 11 -11 38 -15 99 -15 117 0 115 -1 115 85 0 41 4 77 10 80 5 3
22 -7 36 -22 88 -94 114 -116 162 -139 32 -15 66 -24 85 -22 31 3 33 6 64 98
43 127 43 134 -10 154 -24 9 -54 27 -67 41 l-22 24 34 33 c52 49 78 92 99 161
57 189 -17 409 -162 479 -86 41 -128 58 -149 58 -10 0 -40 -18 -65 -40z m101
-304 c29 -29 34 -41 34 -81 0 -54 -21 -95 -60 -119 -35 -20 -54 -20 -74 0 -20
20 -23 203 -4 222 23 23 68 14 104 -22z"/>
<path d="M6167 1373 c-13 -12 -8 -268 5 -281 7 -7 42 -12 89 -12 61 0 78 -3
83 -16 3 -9 6 -170 6 -359 0 -303 2 -344 16 -349 20 -8 178 -8 198 0 14 5 16
46 16 353 0 257 3 350 12 359 7 7 42 12 89 12 53 0 80 4 88 14 8 9 11 48 9
112 -3 112 6 102 -112 123 -33 6 -77 20 -98 31 -35 18 -57 20 -217 20 -98 0
-181 -3 -184 -7z"/>
<path d="M6933 1369 c-6 -6 -22 -17 -35 -23 l-23 -12 0 -489 0 -490 190 -3
c105 -1 200 0 213 3 21 5 22 9 22 145 0 162 11 148 -125 152 l-80 3 0 30 0 30
80 3 c136 4 125 -9 125 146 0 102 -3 136 -14 145 -9 7 -46 11 -96 10 -88 -2
-113 8 -94 39 9 14 29 18 102 20 110 3 104 -7 100 172 l-3 125 -175 3 c-121 2
-179 -1 -187 -9z"/>
<path d="M7485 1327 c-68 -73 -88 -134 -83 -253 5 -129 26 -171 189 -368 28
-35 39 -57 37 -75 -4 -32 -38 -40 -73 -17 -13 9 -29 16 -34 16 -14 0 -111
-142 -111 -163 0 -29 39 -77 88 -108 39 -25 56 -29 114 -29 77 0 108 12 154
62 101 106 111 277 26 413 -14 22 -56 76 -93 120 -58 70 -99 138 -99 166 0 5
9 18 20 29 18 18 22 18 54 5 l35 -15 55 77 c31 43 56 83 56 89 0 17 -69 76
-83 71 -8 -2 -13 -34 -15 -82 -3 -85 -12 -105 -47 -105 -24 0 -50 47 -58 110
-3 19 -13 52 -21 73 -23 53 -49 49 -111 -16z"/>
</g>
</svg>
